<?xml version="1.0" standalone="no"?>
<!DOCTYPE svg PUBLIC "-//W3C//DTD SVG 20010904//EN"
 "http://www.w3.org/TR/2001/REC-SVG-20010904/DTD/svg10.dtd">
<svg version="1.0" xmlns="http://www.w3.org/2000/svg"
 width="300.000000pt" height="300.000000pt" viewBox="0 0 300.000000 300.000000"
 preserveAspectRatio="xMidYMid meet">
<metadata>
Created by potrace 1.11, written by Peter Selinger 2001-2013
</metadata>
<g transform="translate(0.000000,300.000000) scale(0.100000,-0.100000)"
fill="#000000" stroke="none">
<path d="M485 2502 c-244 -29 -432 -252 -412 -486 8 -83 12 -99 47 -174 36
-78 134 -178 207 -213 l50 -24 0 -553 c0 -303 3 -555 7 -560 12 -11 496 -9
497 3 0 5 2 224 3 485 3 548 4 550 82 619 52 45 115 63 201 56 120 -9 210
-100 230 -230 4 -22 7 -241 7 -487 1 -247 3 -449 6 -449 3 -1 116 -2 253 -3
242 -1 247 -1 248 19 0 11 1 212 1 448 0 235 5 450 10 479 27 146 138 235 282
224 138 -10 209 -81 224 -224 4 -37 7 -264 7 -504 0 -241 2 -439 5 -439 3 -1
116 -2 253 -3 l247 -1 -1 555 c-1 610 -3 629 -61 747 -46 94 -150 199 -245
247 -199 100 -469 118 -681 46 -102 -35 -176 -79 -239 -141 l-47 -47 -56 52
c-126 116 -305 177 -530 180 -36 1 -65 5 -65 11 0 23 -40 113 -68 155 -99 147
-287 233 -462 212z m460 -376 c11 -3 25 -5 32 -5 60 -4 50 -169 -19 -290 -55
-98 -166 -183 -283 -217 -68 -20 -204 -25 -253 -10 l-33 10 2 75 c3 126 43
216 133 307 112 111 271 161 421 130z"/>
</g>
</svg>
